PathFileType	4	(X/Y/Z)	Kaydara																																																																																																																									
DataRate	CameraRate	NumFrames	NumMarkers	Units	OrigDataRate	OrigDataStartFrame	OrigNumFrames																																																																																																																					
30	30	4	41	mm	30	57	151																																																																																																																					
Frame#	Time	SALE_LFHD			SALE_RFHD			SALE_LBHD			SALE_RBHD			SALE_LFTShould			SALE_RFTShould			SALE_LRRShould			SALE_RRRShould			SALE_T10			SALE_STRN			SALE_TRUN			SALE_LSHO			SALE_LUPA			SALE_LELB			SALE_LFRM			SALE_LWRA			SALE_LWRB			SALE_LFIN			SALE_RSHO			SALE_RUPA			SALE_RELB			SALE_RFRM			SALE_RWRB			SALE_RFIN			SALE_LFWT			SALE_RFWT			SALE_LBWT			SALE_RBWT			SALE_LTHI			SALE_LKNE			SALE_RWRA			SALE_LSHN			SALE_LANK			SALE_LHEE			SALE_LTOE			SALE_RTHI			SALE_RKNE			SALE_RSHN			SALE_RANK			SALE_RHEE			SALE_RTOE		
		X1	Y1	Z1	X2	Y2	Z2	X3	Y3	Z3	X4	Y4	Z4	X5	Y5	Z5	X6	Y6	Z6	X7	Y7	Z7	X8	Y8	Z8	X9	Y9	Z9	X10	Y10	Z10	X11	Y11	Z11	X12	Y12	Z12	X13	Y13	Z13	X14	Y14	Z14	X15	Y15	Z15	X16	Y16	Z16	X17	Y17	Z17	X18	Y18	Z18	X19	Y19	Z19	X20	Y20	Z20	X21	Y21	Z21	X22	Y22	Z22	X23	Y23	Z23	X24	Y24	Z24	X25	Y25	Z25	X26	Y26	Z26	X27	Y27	Z27	X28	Y28	Z28	X29	Y29	Z29	X30	Y30	Z30	X31	Y31	Z31	X32	Y32	Z32	X33	Y33	Z33	X34	Y34	Z34	X35	Y35	Z35	X36	Y36	Z36	X37	Y37	Z37	X38	Y38	Z38	X39	Y39	Z39	X40	Y40	Z40	X41	Y41	Z41
																																																																																																																												
57	1.877	222.82604	1659.2305	-1966.35239	89.90522	1652.85233	-1967.39792	221.42029	1634.21509	-2098.72971	95.29778	1626.67969	-2092.85233	245.29057	1390.67123	-1996.44241	102.60205	1387.47528	-1993.71475	234.55372	1443.68591	-2111.43768	84.99293	1449.74609	-2100.57938	157.49499	1291.19904	-2172.41577	170.19794	1318.14453	-1945.50781	168.20267	1232.39273	-1903.5878	356.82076	1413.96255	-2071.51215	393.25123	1198.40149	-2099.47586	374.33502	1090.69839	-2119.41193	408.61137	985.18219	-2095.81558	362.17972	847.69455	-2018.35831	418.62522	840.53726	-2068.55911	426.15452	798.88405	-2020.2951	-6.28748	1416.28006	-2055.70847	-33.79767	1189.30534	-2126.7897	-69.57099	1088.60687	-2087.78091	-62.31688	975.08369	-2096.24924	-87.38856	837.75986	-2048.94577	-105.74335	800.6086	-1998.00217	294.39447	973.50563	-1973.02582	13.96133	973.55782	-1983.68423	240.23102	1039.89845	-2140.6282	63.9957	1045.58907	-2146.47736	288.73755	677.85301	-2150.18295	275.76923	504.59515	-2081.12244	-52.29383	852.57507	-1988.76465	268.01702	306.04307	-2092.83844	258.7701	124.31161	-2148.49258	217.56639	76.00214	-2212.66479	234.38671	87.04809	-2016.04599	7.14901	725.1107	-2147.25708	34.66471	566.17428	-2052.75589	81.76663	373.56514	-2076.04813	35.16928	123.68602	-2141.69586	48.75706	78.41852	-2023.32153	77.42323	64.32137	-2214.67865
58	1.91	222.00109	1660.12497	-1963.96515	88.94424	1653.82782	-1964.33746	220.25106	1634.97879	-2096.34476	94.13483	1627.59125	-2090.08911	242.84805	1390.72388	-1991.24664	100.11214	1387.91229	-1992.2229	233.75086	1444.36798	-2108.44559	84.21421	1449.86526	-2097.72705	157.33333	1291.26007	-2168.83469	169.25074	1319.17023	-1941.53351	167.34793	1233.38852	-1899.58313	356.12701	1414.78302	-2067.55081	392.92587	1199.24301	-2094.91669	374.3705	1091.52794	-2114.80881	408.74626	986.2281	-2091.37253	361.77792	848.18283	-2014.86267	418.79417	841.40854	-2064.38446	426.06079	799.6582	-2016.17493	-7.17579	1416.14044	-2053.23654	-34.16531	1189.24156	-2124.29718	-70.1193	1088.56094	-2085.48981	-62.88658	975.07683	-2094.2038	-88.00179	837.69638	-2047.38312	-106.72203	800.38345	-1996.54358	293.32804	973.21655	-1973.26447	13.47367	973.4935	-1983.57574	240.0968	1040.79933	-2139.16824	63.94016	1046.66428	-2145.47089	289.27408	677.84439	-2149.27887	276.32168	505.00027	-2079.22211	-53.05793	852.04506	-1987.04636	268.31497	305.77271	-2092.0842	259.16626	124.33332	-2148.25607	217.88288	75.93237	-2212.92267	235.16304	87.13952	-2016.38824	6.99518	725.04463	-2146.33011	35.4886	566.55205	-2050.10208	83.23705	373.40858	-2074.79584	35.37254	123.82159	-2140.34836	48.76597	78.52605	-2023.24066	77.27281	64.4009	-2214.66644
59	1.943	220.95108	1661.31882	-1961.3414	87.80483	1655.15076	-1961.21277	218.77447	1635.79132	-2093.5228	92.64423	1628.48007	-2086.987	242.91994	1392.63184	-1987.47849	99.19262	1388.79929	-1987.42249	233.15527	1444.96964	-2103.82278	83.51009	1450.29648	-2094.27979	157.34745	1291.56631	-2164.34891	167.76485	1320.33615	-1936.64398	165.76452	1234.60304	-1894.51065	355.12901	1415.70694	-2061.9873	392.59541	1200.3476	-2089.43207	374.31408	1092.72888	-2109.43222	408.78563	987.3391	-2086.03088	361.35269	848.86795	-2010.4364	418.81355	842.46216	-2059.69681	425.78316	800.46448	-2011.59485	-8.17824	1416.35529	-2050.28091	-34.42469	1189.58397	-2121.15311	-70.77174	1088.92365	-2082.798	-63.66983	975.52147	-2092.05917	-89.10212	838.04085	-2046.18668	-107.76751	800.23048	-1995.56595	292.48865	973.19527	-1972.01996	12.56007	973.19603	-1983.33847	239.7784	1042.45415	-2137.01813	63.71981	1048.31917	-2144.04678	289.5303	677.85408	-2148.50861	276.23697	505.43976	-2077.28165	-54.43693	851.96655	-1985.60547	268.43269	305.45126	-2091.23825	259.49425	124.44369	-2148.43994	218.13488	75.76452	-2213.39493	235.96458	87.43148	-2017.03049	6.81591	724.64088	-2144.89517	36.57077	566.77052	-2046.48361	85.33683	371.72321	-2072.13608	35.58987	123.75937	-2139.15085	48.84246	78.86278	-2023.35968	77.15145	64.32822	-2214.74731
60	1.977	219.66911	1662.59811	-1958.30521	86.33249	1656.44531	-1957.70508	216.8648	1636.28983	-2090.20386	90.74222	1629.09164	-2083.21457	241.57864	1393.86017	-1981.17798	97.03084	1389.78943	-1983.03955	232.71019	1445.51239	-2097.43164	82.69775	1450.79788	-2089.64996	157.34556	1292.06024	-2158.76007	165.72706	1321.46591	-1930.69595	163.37271	1235.66124	-1888.47794	354.13357	1416.75339	-2054.53979	392.21115	1201.60065	-2082.29767	374.33117	1094.07318	-2102.84393	408.69972	988.51707	-2079.49951	361.007	849.85847	-2005.26047	418.72948	843.57758	-2054.16306	425.23144	801.23749	-2006.24481	-9.29819	1416.77216	-2046.46103	-34.55668	1190.36804	-2117.77374	-71.6561	1089.72778	-2080.07767	-64.6879	976.33438	-2090.02945	-90.31152	838.62106	-2045.40329	-109.1931	800.24727	-1995.08438	291.06659	972.79556	-1970.17944	10.95382	972.66006	-1982.47269	238.98764	1044.38568	-2134.03412	63.09622	1050.02014	-2142.07565	289.17162	678.20869	-2147.85095	276.19221	506.11309	-2075.43167	-55.96972	851.94557	-1984.53583	268.3503	305.22436	-2090.15594	259.80923	124.62997	-2148.4491	218.40063	75.59749	-2213.7027	236.14666	87.75494	-2017.54654	6.83906	724.05594	-2142.8595	37.68753	567.05879	-2041.97891	86.51634	370.8744	-2068.22647	35.64211	123.86214	-2138.59161	49.24837	79.6254	-2023.75076	77.07349	64.10489	-2214.94919
